<svg xmlns="http://www.w3.org/2000/svg" version="1.1" xmlns:xlink="http://www.w3.org/1999/xlink" width="1000" height="1000"><g clip-path="url(#SvgjsClipPath1003)"><rect width="1000" height="1000" fill="#ffffff"></rect><g transform="matrix(3.5,0,0,3.5,150,150)"><svg xmlns="http://www.w3.org/2000/svg" version="1.1" xmlns:xlink="http://www.w3.org/1999/xlink" width="200" height="200"><svg xmlns="http://www.w3.org/2000/svg" version="1.1" xmlns:xlink="http://www.w3.org/1999/xlink" viewBox="0 0 200 200"><rect width="200" height="200" fill="url('#gradient')"></rect><defs><linearGradient id="gradient" gradientTransform="rotate(0 0.5 0.5)"><stop offset="0%" stop-color="#ff0000"></stop><stop offset="100%" stop-color="#ff00af"></stop></linearGradient><clipPath id="SvgjsClipPath1003"><rect width="1000" height="1000" x="0" y="0" rx="350" ry="350"></rect></clipPath></defs><g><g fill="#000000" transform="matrix(6.021758306380477,0,0,6.021758306380477,-2.101927296374356,142.8189576467813)" stroke="#ffffff" stroke-width="1.15"><path d="M6.74-4.46L6.74-14.22L10.16-14.22L10.16-4.46Q10.16-3.11 9.53-2.04Q8.90-0.98 7.77-0.39Q6.64 0.20 5.25 0.20L5.25 0.20Q2.93 0.20 1.64-0.98Q0.35-2.15 0.35-4.30L0.35-4.30L3.79-4.30Q3.79-3.32 4.13-2.88Q4.46-2.44 5.25-2.44L5.25-2.44Q5.97-2.44 6.35-2.97Q6.74-3.51 6.74-4.46L6.74-4.46ZM22.03-2.54L22.03 0L12.11 0L12.11-2.15L16.68-6.95Q18.37-8.88 18.37-10.01L18.37-10.01Q18.37-10.93 17.97-11.41Q17.57-11.88 16.81-11.88L16.81-11.88Q16.05-11.88 15.59-11.25Q15.12-10.61 15.12-9.65L15.12-9.65L11.82-9.65Q11.82-10.96 12.47-12.07Q13.13-13.17 14.29-13.80Q15.45-14.42 16.88-14.42L16.88-14.42Q19.19-14.42 20.43-13.36Q21.68-12.29 21.68-10.30L21.68-10.30Q21.68-9.46 21.37-8.67Q21.05-7.87 20.40-7.00Q19.74-6.12 18.27-4.66L18.27-4.66L16.44-2.54L22.03-2.54ZM33.56-8.40L33.56-5.81Q33.56-2.93 32.27-1.37Q30.98 0.20 28.62 0.20L28.62 0.20Q26.25 0.20 24.95-1.38Q23.65-2.95 23.65-5.81L23.65-5.81L23.65-8.41Q23.65-11.29 24.95-12.85Q26.24-14.41 28.60-14.41Q30.97-14.41 32.27-12.84Q33.56-11.27 33.56-8.40L33.56-8.40ZM30.27-5.31L30.27-8.83Q30.27-10.36 29.87-11.12Q29.47-11.88 28.60-11.88L28.60-11.88Q27.75-11.88 27.37-11.17Q26.98-10.47 26.95-9.04L26.95-9.04L26.95-5.41Q26.95-3.82 27.35-3.08Q27.75-2.34 28.62-2.34L28.62-2.34Q29.46-2.34 29.86-3.06Q30.26-3.78 30.27-5.31L30.27-5.31Z"></path></g></g></svg></svg></g></g></svg>