<?xml version="1.0" encoding="utf-8"?>
<!-- Generator: Adobe Illustrator 16.0.4, SVG Export Plug-In . SVG Version: 6.00 Build 0)  -->
<!DOCTYPE svg PUBLIC "-//W3C//DTD SVG 1.1//EN" "http://www.w3.org/Graphics/SVG/1.1/DTD/svg11.dtd">
<svg version="1.1" id="SemiBold" xmlns="http://www.w3.org/2000/svg" xmlns:xlink="http://www.w3.org/1999/xlink" x="0px" y="0px"
	 width="131.414px" height="45px" viewBox="0 0 131.414 45" enable-background="new 0 0 131.414 45" xml:space="preserve">
<g>
	<g>
		<path fill="#DDDDDD" d="M124.492,1c3.376,0,5.922,2.678,5.922,6.229v31.297c0,3.325-2.324,5.474-5.922,5.474H7.227
			C3.793,44,1,41.205,1,37.77V7.228C1,3.794,3.793,1,7.227,1H124.492 M124.492,0H7.227C3.236,0,0,3.237,0,7.228V37.77
			C0,41.762,3.236,45,7.227,45h117.265c3.989,0,6.922-2.481,6.922-6.474V7.229C131.414,3.237,128.481,0,124.492,0L124.492,0z"/>
	</g>
</g>
<g>
	<g>
		<g>
			<path fill="#757575" d="M89.611,26.661l-0.938,0.885c-0.218,0.119-0.431,0.258-0.646,0.355c-0.651,0.296-1.314,0.371-1.901,0.371
				c-0.628,0-1.609-0.041-2.61-0.765c-1.391-0.98-1.999-2.665-1.999-4.133c0-3.039,2.475-4.53,4.492-4.53
				c0.704,0,1.429,0.177,2.019,0.549c0.979,0.648,1.232,1.488,1.373,1.939l-4.61,1.863l-1.509,0.117
				c0.488,2.491,2.175,3.94,4.038,3.94c0.93,0,1.62-0.302,2.253-0.616C89.573,26.636,89.7,26.572,89.611,26.661z M86.83,21.704
				c0.375-0.135,0.57-0.252,0.57-0.525c0-0.783-0.889-1.686-1.944-1.686c-0.783,0-2.254,0.609-2.254,2.728
				c0,0.328,0.04,0.681,0.06,1.033L86.83,21.704z"/>
			<path fill="#757575" d="M79.974,26.509c0,0.763,0.137,0.881,0.781,0.94c0.334,0.039,0.67,0.058,1,0.096l-0.723,0.431h-3.457
				c0.455-0.587,0.534-0.646,0.534-1.036v-0.438l-0.008-11.654h-1.528l1.468-0.707h2.805c-0.606,0.351-0.789,0.567-0.866,1.252
				L79.974,26.509z"/>
			<path fill="#757575" d="M74.619,19.808c0.449,0.37,1.391,1.154,1.391,2.644c0,1.452-0.819,2.137-1.645,2.782
				c-0.254,0.256-0.549,0.532-0.549,0.959c0,0.436,0.295,0.67,0.51,0.845l0.706,0.548c0.862,0.725,1.647,1.391,1.647,2.746
				c0,1.843-1.785,3.702-5.157,3.702c-2.838,0-4.214-1.354-4.214-2.803c0-0.706,0.351-1.704,1.511-2.39
				c1.216-0.742,2.862-0.843,3.743-0.899c-0.274-0.356-0.588-0.73-0.588-1.336c0-0.333,0.099-0.532,0.194-0.765
				c-0.214,0.02-0.43,0.042-0.626,0.042c-2.079,0-3.254-1.552-3.254-3.08c0-0.902,0.41-1.902,1.254-2.626
				c1.119-0.921,2.45-1.079,3.51-1.079h4.038l-1.255,0.709H74.619L74.619,19.808z M73.228,28.509c-0.159-0.02-0.255-0.02-0.451-0.02
				c-0.178,0-1.234,0.037-2.056,0.313c-0.434,0.158-1.688,0.627-1.688,2.02c0,1.389,1.354,2.392,3.448,2.392
				c1.882,0,2.881-0.902,2.881-2.118C75.362,30.095,74.714,29.569,73.228,28.509z M73.792,24.785
				c0.454-0.453,0.494-1.078,0.494-1.432c0-1.41-0.842-3.606-2.471-3.606c-0.508,0-1.059,0.255-1.37,0.65
				c-0.332,0.408-0.432,0.937-0.432,1.447c0,1.312,0.767,3.489,2.449,3.489C72.954,25.333,73.483,25.094,73.792,24.785z"/>
			<path fill="#757575" d="M62.465,28.231c-3.116,0-4.783-2.428-4.783-4.622c0-2.566,2.097-4.764,5.077-4.764
				c2.882,0,4.687,2.257,4.687,4.625C67.446,25.783,65.662,28.231,62.465,28.231z M64.917,26.646
				c0.474-0.627,0.589-1.411,0.589-2.175c0-1.725-0.823-5.017-3.253-5.017c-0.646,0-1.298,0.253-1.768,0.666
				c-0.765,0.685-0.901,1.548-0.901,2.393c0,1.937,0.957,5.13,3.332,5.13C63.684,27.642,64.464,27.272,64.917,26.646z"/>
			<path fill="#757575" d="M52.033,28.231c-3.115,0-4.78-2.428-4.78-4.622c0-2.566,2.097-4.764,5.077-4.764
				c2.88,0,4.683,2.257,4.683,4.625C57.012,25.783,55.231,28.231,52.033,28.231z M54.485,26.646
				c0.471-0.627,0.588-1.411,0.588-2.175c0-1.725-0.825-5.017-3.253-5.017c-0.649,0-1.292,0.253-1.762,0.666
				c-0.767,0.685-0.903,1.548-0.903,2.393c0,1.937,0.961,5.13,3.332,5.13C53.252,27.642,54.033,27.272,54.485,26.646z"/>
			<path fill="#757575" d="M46.008,27.551l-2.628,0.602c-1.065,0.168-2.02,0.315-3.032,0.315c-5.069,0-7-3.732-7-6.65
				c0-3.567,2.736-6.873,7.422-6.873c0.992,0,1.946,0.146,2.816,0.383c1.377,0.387,2.021,0.863,2.423,1.144l-1.527,1.449
				l-0.644,0.145l0.459-0.732c-0.622-0.607-1.763-1.728-3.933-1.728c-2.899,0-5.087,2.204-5.087,5.422
				c0,3.457,2.498,6.708,6.502,6.708c1.177,0,1.782-0.237,2.333-0.458v-2.963l-2.774,0.148l1.471-0.788h3.894l-0.476,0.458
				c-0.128,0.109-0.146,0.147-0.181,0.293c-0.019,0.168-0.037,0.7-0.037,0.887L46.008,27.551L46.008,27.551z"/>
		</g>
		<g>
			<path fill="#757575" d="M95.26,26.744v4.995h-0.991V19.034h0.991v1.445c0.646-0.933,1.826-1.676,3.196-1.676
				c2.459,0,4.115,1.865,4.115,4.817c0,2.933-1.656,4.837-4.115,4.837C97.162,28.459,96.003,27.791,95.26,26.744z M101.506,23.621
				c0-2.225-1.159-3.921-3.216-3.921c-1.279,0-2.5,1.004-3.03,1.878v4.066c0.531,0.877,1.752,1.919,3.03,1.919
				C100.347,27.563,101.506,25.849,101.506,23.621z"/>
			<path fill="#757575" d="M103.925,28.229V15.526h0.992v12.703H103.925L103.925,28.229z"/>
			<path fill="#757575" d="M116.042,30.917c0.212,0.095,0.574,0.152,0.805,0.152c0.606,0,1.028-0.247,1.407-1.125l0.723-1.638
				l-3.906-9.273h1.106l3.351,8.037l3.317-8.037h1.123l-4.764,11.218c-0.495,1.157-1.273,1.714-2.342,1.714
				c-0.32,0-0.743-0.059-0.99-0.134L116.042,30.917z"/>
			<path fill="#757575" d="M113.149,28.201c-0.067-0.317-0.116-0.599-0.154-0.833c-0.028-0.233-0.047-0.473-0.047-0.718
				c-0.34,0.499-0.821,0.915-1.438,1.243c-0.617,0.328-1.2,0.49-2.001,0.49c-0.967,0-1.719-0.237-2.254-0.721
				c-0.533-0.479-0.802-1.134-0.802-1.957c0-0.826,0.388-1.494,1.163-2.007c0.775-0.514,1.777-0.769,3.017-0.769h2.314v-1.143
				c0-0.659-0.225-1.176-0.672-1.552c-0.45-0.375-1.082-0.566-1.898-0.566c-0.749,0-1.356,0.174-1.817,0.512
				c-0.457,0.345-0.689,0.772-0.689,1.288h-1.015l-0.021-0.051c-0.034-0.693,0.283-1.304,0.958-1.83
				c0.672-0.526,1.555-0.791,2.636-0.791c1.084,0,1.958,0.262,2.618,0.781c0.658,0.512,0.989,1.257,0.989,2.228v4.537
				c0,0.327,0.015,0.641,0.056,0.947c0.043,0.308,0.108,0.615,0.199,0.91H113.149L113.149,28.201z M109.626,27.479
				c0.844,0,1.447-0.187,2.068-0.561c0.613-0.369,1.032-0.851,1.251-1.436v-1.767h-2.323c-0.889,0-1.623,0.197-2.199,0.593
				c-0.578,0.395-0.874,0.872-0.874,1.429c0,0.525,0.187,0.943,0.557,1.261C108.479,27.32,108.982,27.479,109.626,27.479z"/>
		</g>
	</g>
	<g>
		<polygon fill="none" points="20.398,22.153 23.58,18.972 23.579,18.972 20.398,22.153 10.246,12.003 10.246,12.003 20.398,22.155 
			10.23,32.322 10.23,32.322 20.398,22.155 23.594,25.351 23.595,25.351 		"/>
		
			<linearGradient id="SVGID_1_" gradientUnits="userSpaceOnUse" x1="48.4312" y1="-514.8853" x2="35.0268" y2="-523.2742" gradientTransform="matrix(0.7071 0.7071 -0.7071 0.7071 -380.0626 351.1692)">
			<stop  offset="0" style="stop-color:#D6FFA1"/>
			<stop  offset="0.3264" style="stop-color:#93E2A7"/>
			<stop  offset="1" style="stop-color:#00A3B5"/>
		</linearGradient>
		<path fill="url(#SVGID_1_)" d="M23.579,18.972l-12.395-6.813c-0.351-0.191-0.675-0.238-0.938-0.156l10.152,10.151L23.579,18.972z"
			/>
		
			<linearGradient id="SVGID_2_" gradientUnits="userSpaceOnUse" x1="40.6372" y1="-522.0532" x2="58.0176" y2="-517.5098" gradientTransform="matrix(0.7071 0.7071 -0.7071 0.7071 -380.0626 351.1692)">
			<stop  offset="0" style="stop-color:#FF177B"/>
			<stop  offset="0.6721" style="stop-color:#FFA976"/>
			<stop  offset="1" style="stop-color:#FFEC73"/>
		</linearGradient>
		<path fill="url(#SVGID_2_)" d="M23.595,25.351l4.231-2.327c0.858-0.474,0.858-1.244,0-1.717l-4.248-2.334l-3.181,3.181
			L23.595,25.351z"/>
		
			<linearGradient id="SVGID_3_" gradientUnits="userSpaceOnUse" x1="50.3374" y1="-508.5239" x2="31.4908" y2="-519.6121" gradientTransform="matrix(0.7071 0.7071 -0.7071 0.7071 -380.0626 351.1692)">
			<stop  offset="0" style="stop-color:#63FFD4"/>
			<stop  offset="0.4854" style="stop-color:#32A0BA"/>
			<stop  offset="0.8349" style="stop-color:#1262A9"/>
			<stop  offset="1" style="stop-color:#064AA2"/>
		</linearGradient>
		<path fill="url(#SVGID_3_)" d="M10.246,12.003c-0.376,0.119-0.62,0.499-0.62,1.077l0.002,18.172c0,0.572,0.237,0.948,0.604,1.072
			l10.168-10.167L10.246,12.003z"/>
		
			<linearGradient id="SVGID_4_" gradientUnits="userSpaceOnUse" x1="57.1792" y1="-517.3257" x2="45.577" y2="-502.0402" gradientTransform="matrix(0.7071 0.7071 -0.7071 0.7071 -380.0626 351.1692)">
			<stop  offset="0" style="stop-color:#FF4521"/>
			<stop  offset="0.3411" style="stop-color:#D43E65"/>
			<stop  offset="0.7935" style="stop-color:#9F36B9"/>
			<stop  offset="1" style="stop-color:#8A33DB"/>
		</linearGradient>
		<path fill="url(#SVGID_4_)" d="M10.23,32.322c0.263,0.092,0.595,0.049,0.954-0.147l12.41-6.823l-3.196-3.196L10.23,32.322z"/>
	</g>
</g>
</svg>
