<svg xmlns="http://www.w3.org/2000/svg" xmlns:xlink="http://www.w3.org/1999/xlink" version="1.1" width="173.73859" height="348.80057" viewBox="0,0,173.73859,348.80057"><defs><linearGradient x1="241.41594" y1="151.15059" x2="241.41594" y2="172.08454" gradientUnits="userSpaceOnUse" id="color-1"><stop offset="0" stop-color="#fc83bf"/><stop offset="1" stop-color="#fcb1d5"/></linearGradient><linearGradient x1="241.28846" y1="58.48992" x2="241.28846" y2="143.25372" gradientUnits="userSpaceOnUse" id="color-2"><stop offset="0" stop-color="#ffffff"/><stop offset="1" stop-color="#82b0ff"/></linearGradient><linearGradient x1="241.29556" y1="60.39063" x2="241.29556" y2="141.30732" gradientUnits="userSpaceOnUse" id="color-3"><stop offset="0" stop-color="#fc83bf"/><stop offset="1" stop-color="#fcb1d5"/></linearGradient><linearGradient x1="272.52603" y1="99.78529" x2="272.52603" y2="140.08813" gradientUnits="userSpaceOnUse" id="color-4"><stop offset="0" stop-color="#fccaf2" stop-opacity="0.68627"/><stop offset="1" stop-color="#ffebf5" stop-opacity="0.39608"/></linearGradient><linearGradient x1="209.58822" y1="61.81195" x2="209.58822" y2="102.27284" gradientUnits="userSpaceOnUse" id="color-5"><stop offset="0" stop-color="#fccaf2" stop-opacity="0.68627"/><stop offset="1" stop-color="#ffebf5" stop-opacity="0.39608"/></linearGradient><linearGradient x1="241.01128" y1="61.81195" x2="241.01128" y2="140.08813" gradientUnits="userSpaceOnUse" id="color-6"><stop offset="0" stop-color="#fccaf2" stop-opacity="0.68627"/><stop offset="1" stop-color="#ffebf5" stop-opacity="0.39608"/></linearGradient></defs><g transform="translate(-153.13071,-5.25843)"><g stroke-miterlimit="10"><g stroke-width="1.5" stroke-linecap="butt"><path d="M185.96924,227.6048l45.19747,-78.53714l19.82998,11.41199l-45.19747,78.53714z" fill="#1a184e" stroke="#000000"/><path d="M210.64726,242.3967c-0.31326,11.86814 -9.62643,21.25002 -20.80152,20.95504c-11.17509,-0.29499 -19.98035,-10.15513 -19.66707,-22.02325c0.31326,-11.86814 9.62643,-21.25002 20.80152,-20.95504c11.17509,0.29499 19.98035,10.15513 19.66707,22.02325z" fill="#e0ebff" stroke="#001b48"/></g><g stroke-linecap="butt"><path d="M212.39117,350.26945l2.04702,-124.25783l23.15613,1.13778l0.45489,123.12005z" fill="#1a184e" stroke="#000000" stroke-width="1.5"/><path d="M204.53061,353.309l3.1274,-50.06175h31.55825v50.06175z" fill="#e0ebff" stroke="#001b48" stroke-width="1.5"/><path d="M222.69771,353.66118l1.90895,-13.90924l1.90895,13.90924z" fill="#001b48" stroke="none" stroke-width="0"/><path d="M208.85424,353.57081l1.90895,-13.90924l1.90895,13.90924z" fill="#001b48" stroke="none" stroke-width="0"/></g><g stroke-width="1.5" stroke-linecap="butt"><path d="M273.58734,239.01237l-45.19747,-78.53714l19.82998,-11.41199l45.19747,78.53714z" fill="#1a184e" stroke="#000000"/><path d="M288.40637,220.36904c11.17509,-0.29498 20.48826,9.0869 20.80152,20.95504c0.313028,11.86812 -8.49198,21.72826 -19.66707,22.02325c-11.17509,0.29498 -20.48826,-9.0869 -20.80152,-20.95504c-0.31328,-11.86812 8.49198,-21.72826 19.66707,-22.02325z" fill="#e0ebff" stroke="#001b48"/></g><g stroke-linecap="none"><path d="M121.11,60.87l5.89,0.11l16.01-16.01l0.78-6.78C131.07,26.87,114.33,19.98,96,19.98 c-33.19,0-61.18,22.57-69.48,53.17c1.75-1.21,5.48-0.31,5.48-0.31l32-5.26c0,0,1.66-2.72,2.47-2.55 C73.79,57.02,84.32,51.98,96,51.98C105.5,51.98,114.24,55.32,121.11,60.87z" fill="#1a184e" stroke="#000000" stroke-width="1.5"/><path d="M121.11,60.87l5.89,0.11l16.01-16.01l0.78-6.78C131.07,26.87,114.33,19.98,96,19.98 c-33.19,0-61.18,22.57-69.48,53.17c1.75-1.21,5.48-0.31,5.48-0.31l32-5.26c0,0,1.66-2.72,2.47-2.55 C73.79,57.02,84.32,51.98,96,51.98C105.5,51.98,114.24,55.32,121.11,60.87z" fill="#e0ebff" stroke="#001b48" stroke-width="1.5"/><path d="M121.11,60.87l5.89,0.11l16.01-16.01l0.78-6.78C131.07,26.87,114.33,19.98,96,19.98 c-33.19,0-61.18,22.57-69.48,53.17c1.75-1.21,5.48-0.31,5.48-0.31l32-5.26c0,0,1.66-2.72,2.47-2.55 C73.79,57.02,84.32,51.98,96,51.98C105.5,51.98,114.24,55.32,121.11,60.87z" fill="#001b48" stroke="none" stroke-width="0"/><path d="M266.71443,353.56639l1.90895,-13.90924l1.90895,13.90924z" fill="#001b48" stroke="none" stroke-width="0"/></g><g><path d="M225.49412,154.38437v-8.64703h29.79554v8.64703z" fill="#1a184e" stroke="#070716" stroke-width="1.5" stroke-linecap="butt"/><path d="M213.22865,235.75449l10.40235,-83.10018l34.12806,-0.1896l9.12487,83.02906z" fill="#e0ebff" stroke="#001b48" stroke-width="1.5" stroke-linecap="butt"/><g stroke-linecap="butt"><path d="M241.73473,174.9003l-13.56484,-12.61109l12.73125,-13.69408l13.56484,12.61109z" fill="#e0ebff" stroke="#768aae" stroke-width="1.5"/><path d="M241.74764,172.08454l-10.79505,-10.03606l10.13167,-10.8979l10.79505,10.03605z" fill="url(#color-1)" stroke="none" stroke-width="0"/><path d="M237.4784,162.76635v-6.8298h6.8266v6.8298z" fill="#fcf2fa" stroke="none" stroke-width="0"/><path d="M245.005,164.33272v-1.85215h1.85127v1.85215z" fill="#fcf2fa" stroke="none" stroke-width="0"/><path d="M240.67185,166.94091v-1.96791h1.96698v1.96791z" fill="#fcf2fa" stroke="none" stroke-width="0"/></g><path d="M262.07452,190.78273l-5.35306,0.0619l-2.61602,3.69879l-26.95258,-0.01436l-2.38665,-3.58468l-5.80913,0.04965" fill="none" stroke="#001b48" stroke-width="0.5" stroke-linecap="round"/></g><g><g stroke-linecap="butt"><path d="M180.41762,70.35653c-11.57294,-20.92566 20.54929,-63.83251 20.54929,-63.83251c0,0 40.25334,33.37206 32.2337,58.28352c-8.01963,24.91146 -41.21006,26.47465 -52.78299,5.54899z" fill="#e0ebff" stroke="#001b48" stroke-width="1.5"/><path d="M182.91863,69.41924c-10.50251,-18.99018 18.64862,-57.92842 18.64862,-57.92842c0,0 36.53016,30.28537 29.2523,52.89268c-7.27786,22.60731 -37.39838,24.02592 -47.90092,5.03574z" fill="#b3ceff" stroke="none" stroke-width="0"/><path d="M185.83454,70.15484c-9.40798,-17.48252 16.45634,-53.17822 16.45634,-53.17822c0,0 32.626,27.93996 26.20371,48.69345c-6.42229,20.7535 -33.25207,21.96729 -42.66006,4.48478z" fill="#fc83bf" stroke="none" stroke-width="0"/><path d="M208.49627,77.89654c-7.02673,0.7387 -13.38116,-5.54091 -14.19303,-14.02592c-0.81187,-8.48501 4.22627,-15.96231 11.253,-16.70101c7.02673,-0.7387 13.38116,5.54091 14.19303,14.02592c0.81187,8.48501 -4.22627,15.96231 -11.253,16.70101z" fill="none" stroke-opacity="0.60392" stroke="#ffffff" stroke-width="3"/><path d="M204.59433,38.90089c-2.671,0.2808 -5.08648,-2.10623 -5.39509,-5.33156c-0.30861,-3.22533 1.6065,-6.06764 4.27751,-6.34843c2.671,-0.2808 5.08648,2.10623 5.39509,5.33156c0.30861,3.22533 -1.6065,6.06764 -4.27751,6.34843z" fill="none" stroke-opacity="0.38824" stroke="#ffffff" stroke-width="3"/></g><g stroke-linecap="butt"><path d="M250.10633,64.62235c-8.01963,-24.91146 32.2337,-58.28352 32.2337,-58.28352c0,0 32.12224,42.90685 20.54929,63.83251c-11.57294,20.92566 -44.76337,19.36247 -52.78299,-5.54899z" fill="#e0ebff" stroke="#001b48" stroke-width="1.5"/><path d="M252.48741,64.19831c-7.27786,-22.60731 29.2523,-52.89268 29.2523,-52.89268c0,0 29.15114,38.93825 18.64862,57.92842c-10.50252,18.99018 -40.62306,17.57157 -47.90092,-5.03574z" fill="#b3ceff" stroke="none" stroke-width="0"/><path d="M297.47242,69.96966c-9.40798,17.48253 -36.23776,16.26871 -42.66006,-4.48478c-6.4223,-20.75349 26.2037,-48.69344 26.2037,-48.69344c0,0 25.86431,35.69571 16.45634,53.17823z" fill="#fc83bf" stroke="none" stroke-width="0"/><path d="M263.55767,61.01034c0.81187,-8.485 7.1663,-14.76462 14.19303,-14.02592c7.02672,0.73871 12.06486,8.21601 11.253,16.70101c-0.81187,8.485 -7.1663,14.76462 -14.19302,14.02592c-7.02672,-0.7387 -12.06486,-8.21601 -11.253,-16.70101z" fill="none" stroke-opacity="0.60392" stroke="#ffffff" stroke-width="3"/><path d="M274.43511,32.36726c0.30861,-3.22535 2.72409,-5.61237 5.39509,-5.33156c2.67101,0.2808 4.58611,3.12308 4.2775,6.34843c-0.30861,3.22535 -2.72408,5.61237 -5.39508,5.33157c-2.67101,-0.2808 -4.58612,-3.12309 -4.27751,-6.34844z" fill="none" stroke-opacity="0.38824" stroke="#ffffff" stroke-width="3"/></g><g stroke-linecap="butt"><path d="M184.62895,149.96345c-25.91037,2.42686 -26.94086,-16.98094 -26.94086,-16.98094c0,0 2.46855,-1.64769 6.52784,-2.93643c-17.28861,-10.57627 -7.66379,-34.82327 -7.66379,-34.82327l52.4209,24.97644c0,0 1.5663,27.33733 -24.34408,29.76419z" fill="#e0ebff" stroke="#001b48" stroke-width="1.5"/><path d="M271.02697,118.48815l52.4209,-24.97644c0,0 9.62482,24.247 -7.6638,34.82327c4.05929,1.28874 6.52784,2.93643 6.52784,2.93643c0,0 -1.0305,19.4078 -26.94086,16.98094c-25.91037,-2.42686 -24.34408,-29.76419 -24.34408,-29.76419z" fill="#e0ebff" stroke="#001b48" stroke-width="1.5"/><g><path d="M185.46141,147.04183c-4.20411,0 -7.61222,-3.40811 -7.61222,-7.61222v-77.50372c0,-4.20411 3.40811,-7.61222 7.61222,-7.61222h112.15475c4.20411,0 7.61222,3.40811 7.61222,7.61222v77.50372c0,4.20411 -3.40811,7.61222 -7.61222,7.61222z" fill="#e0ebff" stroke="#001b48" stroke-width="1.5"/><path d="M189.44299,143.25372c-3.88685,0 -7.03776,-3.11539 -7.03776,-6.95842v-70.84697c0,-3.84302 3.15091,-6.95842 7.03776,-6.95842h103.69094c3.88685,0 7.03776,3.11539 7.03776,6.95842v70.84697c0,3.84302 -3.15091,6.95842 -7.03776,6.95842z" fill="url(#color-2)" stroke="none" stroke-width="0"/><path d="M191.45272,141.30732c-3.73672,0 -6.76592,-2.974 -6.76592,-6.6426v-67.63148c0,-3.6686 3.02921,-6.6426 6.76592,-6.6426h99.68569c3.73672,0 6.76592,2.974 6.76592,6.6426v67.63148c0,3.6686 -3.02921,6.6426 -6.76592,6.6426z" fill="url(#color-3)" stroke="#001b48" stroke-width="1"/><g stroke="none" stroke-width="0"><path d="M259.26138,140.08813h-10.12351l46.77631,-40.30285v8.7225z" fill="url(#color-4)"/><path d="M222.94457,61.81195h10.12352l-46.95973,40.46088v-8.72249z" fill="url(#color-5)"/><path d="M192.6704,140.08813c-3.6241,0 -6.56204,-2.87695 -6.56204,-6.42585v-21.40426l58.54873,-50.44606h44.69504c3.6241,0 6.56204,2.87695 6.56204,6.42582v27.91312l-50.99442,43.93723z" fill="url(#color-6)"/></g></g></g><g stroke="none" stroke-width="0" stroke-linecap="butt"><path d="M211.69679,114.52968v-39.82184h13.26775v39.82184z" fill="#601239"/><path d="M213.00359,113.39635v-8.77706h10.66835v8.77706z" fill="#ff6ab4"/></g><g stroke="none" stroke-width="0" stroke-linecap="butt"><path d="M121.11,60.87l5.89,0.11l16.01-16.01l0.78-6.78C131.07,26.87,114.33,19.98,96,19.98 c-33.19,0-61.18,22.57-69.48,53.17c1.75-1.21,5.48-0.31,5.48-0.31l32-5.26c0,0,1.66-2.72,2.47-2.55 C73.79,57.02,84.32,51.98,96,51.98C105.5,51.98,114.24,55.32,121.11,60.87z" fill="#601239"/><path d="M257.42783,113.30327v-8.77706h10.66835v8.77706z" fill="#ff6ab4"/></g><path d="M121.11,60.87l5.89,0.11l16.01-16.01l0.78-6.78C131.07,26.87,114.33,19.98,96,19.98 c-33.19,0-61.18,22.57-69.48,53.17c1.75-1.21,5.48-0.31,5.48-0.31l32-5.26c0,0,1.66-2.72,2.47-2.55 C73.79,57.02,84.32,51.98,96,51.98C105.5,51.98,114.24,55.32,121.11,60.87z" fill="none" stroke="#601239" stroke-width="1.5" stroke-linecap="round"/><path d="M246.82306,111.03326l-5.17059,2.55998l-5.17059,-2.55998z" fill="#601239" stroke="none" stroke-width="0" stroke-linecap="butt"/><path d="M206.51291,115.58897l-3.03263,3.41329l-3.03263,-2.46516l-3.03263,2.65479" fill="none" stroke="#601239" stroke-width="1" stroke-linecap="round"/><path d="M283.85194,112.6352l-3.03263,3.41329l-3.03262,-2.46514l-3.03263,2.65479" fill="none" stroke="#601239" stroke-width="1" stroke-linecap="round"/></g></g></g><div xmlns=""/></svg>
